#!OML:ASF F:\VICON\USERDATA\INSTALL\Justin_Nancy\Justin_Nancy.ASF
:FULLY-SPECIFIED
:DEGREES
17
root 10.8117 16.6902 -18.9988 4.6432 -2.88398 8.79097
lowerback 6.19361 3.19144 -0.603811
upperback -0.449343 4.09321 -3.12601
thorax -3.74655 2.01848 -3.27466
lowerneck -15.2253 -10.5009 -15.3798
upperneck 16.497 -12.5845 8.81025
head 9.24662 -6.05654 3.77971
rclavicle -2.84262e-014 -2.0276e-014
rhumerus -41.9284 12.5036 -88.3957
rradius 107.484
rwrist -10.8574
rhand -13.0338 22.4645
rfingers 7.12502
rthumb 13.0606 -7.10659
lclavicle -2.84262e-014 -2.0276e-014
lhumerus -53.4031 -4.89613 93.7335
lradius 97.5187
lwrist 33.2235
lhand -9.89759 12.8444
lfingers 7.12502
lthumb 16.0823 42.197
rfemur 7.7485 3.28798 35.0947
rtibia 29.2046
rfoot -2.507 -4.77752
rtoes -0.323343
lfemur -41.4492 -6.33396 -13.0523
ltibia 52.3383
lfoot -8.18196 -0.123224
ltoes -18.1979
18
root 10.7357 16.7355 -18.5407 4.70693 -2.72653 9.08022
lowerback 5.82019 3.2259 -0.16504
upperback -0.635856 4.16702 -3.40747
thorax -3.67457 2.0452 -3.80071
lowerneck -14.9726 -10.5649 -15.2603
upperneck 16.6194 -12.7467 8.7791
head 9.25415 -6.13632 3.73393
rclavicle 3.37437e-014 -3.97569e-016
rhumerus -42.1398 12.3892 -88.6046
rradius 107.59
rwrist -10.4383
rhand -12.6846 21.6905
rfingers 7.12502
rthumb 13.3972 -7.8587
lclavicle 3.37437e-014 -3.97569e-016
lhumerus -54.1242 -4.50586 93.5553
lradius 97.872
lwrist 32.6376
lhand -9.23297 12.7299
lfingers 7.12502
lthumb 16.7222 42.0297
rfemur 9.39577 3.18385 34.6792
rtibia 27.8317
rfoot 1.56434 -2.80408
rtoes 0.95045
lfemur -41.6046 -7.11377 -13.4923
ltibia 48.6099
lfoot -7.3722 -2.45186
ltoes -20.3735
19
root 10.65 16.8121 -18.0436 4.40589 -3.25584 9.32786
lowerback 7.29246 3.27756 0.574423
upperback -1.97469 4.21148 -4.02761
thorax -5.80711 1.98767 -5.05076
lowerneck -14.3588 -10.2945 -14.546
upperneck 17.8299 -12.6457 8.40116
head 9.47353 -6.1066 3.53536
rclavicle -4.05769e-014 2.38542e-014
rhumerus -44.3538 12.3701 -90.2088
rradius 107.793
rwrist -10.1588
rhand -9.95279 28.6131
rfingers 7.12502
rthumb 16.0291 -0.743782
lclavicle -4.05769e-014 2.38542e-014
lhumerus -56.9204 -3.93207 92.6343
lradius 98.6448
lwrist 31.9823
lhand -9.3803 14.0407
lfingers 7.12502
lthumb 16.5803 43.3524
rfemur 11.5544 3.59906 34.151
rtibia 26.4118
rfoot 5.83499 -1.18805
rtoes 4.10409
lfemur -40.8116 -7.95051 -13.7605
ltibia 44.8521
lfoot -6.98823 -4.86454
ltoes -24.5737
20
root 10.5586 16.8646 -17.5588 3.97817 -3.67526 9.35062
lowerback 6.7757 3.50695 0.966592
upperback -1.75617 4.57011 -3.99487
thorax -5.224 2.1704 -5.21947
lowerneck -14.3874 -10.4336 -14.4092
upperneck 17.8164 -12.7878 8.04961
head 9.45638 -6.1966 3.36807
rclavicle 3.04886e-014 5.1684e-015
rhumerus -44.0922 12.4622 -90.1201
rradius 107.655
rwrist -9.99282
rhand -11.9314 24.57
rfingers 7.12502
rthumb 14.1231 -4.93007
lclavicle 3.04886e-014 5.1684e-015
lhumerus -57.3798 -3.46184 92.746
lradius 99.3174
lwrist 31.2078
lhand -9.3782 15.1291
lfingers 7.12502
lthumb 16.5824 44.4406
rfemur 13.7162 4.09369 34.006
rtibia 25.0877
rfoot 9.86333 -0.211356
rtoes 5.37275
lfemur -39.9603 -8.65336 -13.7385
ltibia 41.1721
lfoot -6.54748 -7.37995
ltoes -30.5751
21
root 10.4571 16.8929 -17.1155 3.73142 -3.41958 9.23801
lowerback 6.93394 3.46171 1.35392
upperback -1.98492 4.54449 -3.89506
thorax -5.53529 2.13555 -5.35594
lowerneck -13.9835 -10.3512 -14.2896
upperneck 17.9957 -12.7121 7.77192
head 9.40868 -6.19403 3.28321
rclavicle -1.97667e-014 1.27222e-014
rhumerus -44.3645 12.5816 -90.2309
rradius 107.369
rwrist -9.97414
rhand -12.6195 23.5918
rfingers 7.12502
rthumb 13.46 -5.95328
lclavicle -1.97667e-014 1.27222e-014
lhumerus -58.2499 -3.07824 92.7643
lradius 99.9752
lwrist 30.1971
lhand -8.94019 15.3343
lfingers 7.12502
lthumb 17.004 44.61
rfemur 15.3263 4.27927 34.2688
rtibia 24.088
rfoot 13.5343 0.439746
rtoes 6.40067
lfemur -39.5389 -9.3672 -13.61
ltibia 37.5766
lfoot -3.48568 -9.54165
ltoes -26.4536
22
root 10.3731 16.9465 -16.6334 3.99834 -4.0289 9.99607
lowerback 6.03171 3.73152 1.01617
upperback -2.22216 4.87053 -4.08807
thorax -5.25136 2.31196 -5.33949
lowerneck -13.7892 -10.3334 -14.3314
upperneck 18.3226 -12.7002 7.63788
head 9.48004 -6.21163 3.25181
rclavicle -1.30328e-014 1.70955e-014
rhumerus -44.6189 12.6391 -90.184
rradius 107.074
rwrist -10.1641
rhand -12.7994 24.287
rfingers 7.12502
rthumb 13.2866 -5.26946
lclavicle -1.30328e-014 1.70955e-014
lhumerus -58.6619 -2.80646 92.8442
lradius 100.328
lwrist 29.2182
lhand -8.41551 14.8298
lfingers 7.12502
lthumb 17.509 44.0614
rfemur 16.1662 4.85124 33.1187
rtibia 23.8599
rfoot 16.5092 2.00768
rtoes 9.1077
lfemur -39.3881 -9.63815 -14.4655
ltibia 34.4364
lfoot -2.36163 -11.7917
ltoes -27.6686
23
root 10.2808 16.9747 -16.1666 3.56452 -4.35722 10.2091
lowerback 6.16815 3.87236 1.10006
upperback -2.26398 5.06781 -4.01698
thorax -5.35319 2.405 -5.34444
lowerneck -14.0333 -10.4475 -14.3734
upperneck 18.7718 -12.8115 7.48536
head 9.68756 -6.27558 3.17365
rclavicle 2.2649e-014 -8.74653e-015
rhumerus -44.7548 12.7116 -90.0797
rradius 106.783
rwrist -10.4206
rhand -12.8974 23.7544
rfingers 7.12502
rthumb 13.1921 -5.80821
lclavicle 2.2649e-014 -8.74653e-015
lhumerus -58.7763 -2.62492 93.0142
lradius 100.629
lwrist 28.515
lhand -8.1737 14.9568
lfingers 7.12502
lthumb 17.7417 44.1674
rfemur 17.2418 5.43656 32.9008
rtibia 24.517
rfoot 18.2873 2.92838
rtoes 11.6673
lfemur -38.9136 -10.0267 -14.7815
ltibia 31.8155
lfoot 3.16109 -12.4213
ltoes -18.1145
24
root 10.177 16.9885 -15.7126 3.47504 -4.42712 10.0118
lowerback 6.00491 3.92487 1.48673
upperback -2.41354 5.1779 -3.85465
thorax -5.3881 2.44645 -5.39467
lowerneck -14.0204 -10.5228 -14.1908
upperneck 18.9153 -12.9214 7.25977
head 9.71881 -6.33753 3.04964
rclavicle 6.03808e-015 -3.89618e-014
rhumerus -44.9244 12.6564 -90.1058
rradius 106.509
rwrist -10.5214
rhand -12.4407 23.5106
rfingers 7.12502
rthumb 13.6323 -6.02305
lclavicle 6.03808e-015 -3.89618e-014
lhumerus -58.985 -2.63143 93.1439
lradius 101.164
lwrist 28.0318
lhand -7.85748 15.295
lfingers 7.12502
lthumb 18.046 44.4779
rfemur 17.5153 6.15025 33.3752
rtibia 26.0344
rfoot 18.4239 3.23526
rtoes 12.5639
lfemur -38.4885 -9.89126 -14.8577
ltibia 29.8553
lfoot 5.39588 -13.6261
ltoes -13.6783
25
root 10.0702 16.979 -15.2731 3.49471 -4.24915 9.65817
lowerback 5.60996 3.86809 1.88903
upperback -2.40978 5.14891 -3.5699
thorax -5.15306 2.42986 -5.28172
lowerneck -13.9845 -10.5926 -14.0907
upperneck 18.747 -13.0271 7.21124
head 9.65402 -6.38468 3.0033
rclavicle -3.56197e-014 6.36111e-015
rhumerus -44.8323 12.6055 -90.057
rradius 106.221
rwrist -10.5343
rhand -11.9555 24.8072
rfingers 7.12502
rthumb 14.0999 -4.69442
lclavicle -3.56197e-014 6.36111e-015
lhumerus -58.8386 -2.6998 93.38
lradius 101.75
lwrist 27.5406
lhand -7.99044 15.1562
lfingers 7.12502
lthumb 17.918 44.3508
rfemur 17.1871 6.73421 34.1784
rtibia 28.4657
rfoot 17.274 3.13068
rtoes 11.6564
lfemur -38.5418 -9.99725 -14.6636
ltibia 28.5532
lfoot 5.99944 -14.4421
ltoes -12.4988
26
root 9.96167 16.9433 -14.8496 3.19542 -4.3458 9.1056
lowerback 5.92522 3.80268 2.288
upperback -2.43993 5.11734 -3.1024
thorax -5.3749 2.40002 -5.04107
lowerneck -14.2738 -10.6502 -14.014
upperneck 18.9251 -13.0461 6.99351
head 9.74993 -6.40221 2.89875
rclavicle -1.76126e-014 2.94201e-014
rhumerus -44.7881 12.657 -89.9874
rradius 105.899
rwrist -10.598
rhand -11.4415 24.5774
rfingers 7.12502
rthumb 14.5952 -4.88905
lclavicle -1.76126e-014 2.94201e-014
lhumerus -58.6686 -2.6125 93.6588
lradius 102.372
lwrist 27.2887
lhand -7.43275 14.6177
lfingers 7.12502
lthumb 18.4546 43.7623
rfemur 16.7884 7.22153 35.1751
rtibia 31.7267
rfoot 15.642 2.58604
rtoes 9.83434
lfemur -38.3472 -9.84913 -14.283
ltibia 27.9161
lfoot 5.29392 -14.869
ltoes -13.9029
27
root 9.84576 16.8925 -14.4547 3.03691 -4.02149 8.6474
lowerback 6.58069 3.54523 2.58067
upperback -2.64354 4.82668 -2.69579
thorax -6.00347 2.22888 -4.81846
lowerneck -14.5057 -10.6208 -13.9082
upperneck 19.0561 -12.983 6.89214
head 9.81585 -6.37013 2.84689
rclavicle -2.71807e-014 1.59028e-015
rhumerus -44.6927 12.7404 -90.0383
rradius 105.272
rwrist -10.4147
rhand -11.496 23.8881
rfingers 7.12502
rthumb 14.5427 -5.58219
lclavicle -2.71807e-014 1.59028e-015
lhumerus -58.7014 -2.65852 93.8377
lradius 103.309
lwrist 27.331
lhand -5.59034 12.7805
lfingers 7.12502
lthumb 20.2261 41.7475
rfemur 15.6929 7.28913 36.0379
rtibia 35.6518
rfoot 13.8423 1.13314
rtoes 8.50928
lfemur -38.315 -9.85839 -14.0374
ltibia 27.5196
lfoot 5.28581 -15.3264
ltoes -14.7492
28
root 9.73366 16.848 -14.0413 2.91937 -4.29341 8.51441
lowerback 6.87727 3.48095 2.65574
upperback -2.71479 4.76446 -2.48269
thorax -6.26653 2.18943 -4.65857
lowerneck -14.8021 -10.5977 -13.8781
upperneck 18.953 -12.9702 7.14745
head 9.84773 -6.32716 2.92084
rclavicle -5.41005e-014 -3.18055e-014
rhumerus -44.2976 12.7397 -90.2523
rradius 104.442
rwrist -10.2384
rhand -11.7857 23.9142
rfingers 7.12502
rthumb 14.2635 -5.57596
lclavicle -5.41005e-014 -3.18055e-014
lhumerus -58.4463 -3.04526 93.9993
lradius 104.187
lwrist 27.3524
lhand -7.02061 14.3759
lfingers 7.12502
lthumb 18.851 43.4824
rfemur 14.2738 7.56386 36.2402
rtibia 39.9469
rfoot 12.2452 -0.0805516
rtoes 7.79206
lfemur -38.0515 -9.74525 -14.0142
ltibia 27.4598
lfoot 5.91487 -15.528
ltoes -14.6414
29
root 9.62227 16.8008 -13.6214 2.5504 -4.81112 8.57418
lowerback 7.30966 3.45034 2.53831
upperback -2.68235 4.72902 -2.31144
thorax -6.50647 2.17238 -4.44245
lowerneck -14.9219 -10.5557 -13.8345
upperneck 18.5688 -12.9505 7.44899
head 9.7497 -6.28 3.01996
rclavicle -9.15652e-015 3.02153e-014
rhumerus -43.9307 12.6812 -90.52
rradius 103.692
rwrist -10.0676
rhand -11.6241 23.9489
rfingers 7.12502
rthumb 14.4193 -5.53024
lclavicle -9.15652e-015 3.02153e-014
lhumerus -57.7697 -3.54231 94.1877
lradius 104.723
lwrist 27.3091
lhand -7.61997 14.6306
lfingers 7.12502
lthumb 18.2745 43.7922
rfemur 12.9847 7.81726 36.1301
rtibia 44.4557
rfoot 11.0272 -1.1627
rtoes 7.92074
lfemur -37.3532 -9.81121 -14.0355
ltibia 27.6068
lfoot 6.50267 -15.5686
ltoes -13.6644
